<svg xmlns="http://www.w3.org/2000/svg" viewBox="0 0 815.78 871.66"><defs><style>.cls-1{fill:#fff;}</style></defs><g id="Layer_2" data-name="Layer 2"><g id="Layer_1-2" data-name="Layer 1"><path class="cls-1" d="M815.78,871.66H0V0H815.78ZM414.36,806.09c80.25,0,160.51.21,240.76-.23,11.34-.07,23.5-1.23,33.83-5.44,33.48-13.64,42.33-42.38,43.52-75.48,1.72-47.73,3.9-95.45,6.2-143.16Q746.72,415,755.05,248.31c1-21.47-1.56-23.89-23.58-23.91-45,0-90-.26-135,.19-9.9.09-13.82-2.55-14.53-13-2.77-40.76-17.47-77.35-42.15-109.69C490,36.64,404.72,19.68,336.75,62.44,284.22,95.49,258.09,145.61,250.49,206c-2.29,18.23-1.33,18.36-20.27,18.36q-64.71,0-129.43,0c-21.88,0-24.38,2.48-23.43,24Q83,375.62,88.77,502.8c3.52,77.83,6.75,155.67,10.78,233.48,2.38,46,28.17,69.78,74,69.8Q294,806.14,414.36,806.09Z"/><path d="M414.36,806.09q-120.39,0-240.77,0c-45.87,0-71.66-23.77-74-69.8-4-77.81-7.26-155.65-10.78-233.48Q83,375.62,77.36,248.45c-1-21.57,1.55-24,23.43-24q64.72,0,129.43,0c18.94,0,18-.13,20.27-18.36,7.6-60.42,33.73-110.54,86.26-143.59,68-42.76,153.25-25.8,203,39.45,24.68,32.34,39.38,68.93,42.15,109.69.71,10.46,4.63,13.1,14.53,13,45-.45,90-.22,135-.19,22,0,24.62,2.44,23.58,23.91Q747,415.05,738.67,581.78c-2.3,47.71-4.48,95.43-6.2,143.16-1.19,33.1-10,61.84-43.52,75.48-10.33,4.21-22.49,5.37-33.83,5.44C574.87,806.3,494.61,806.09,414.36,806.09Zm94.88-423.53c2.53-3.72,5.5-7.74,8.11-12,9.14-14.89,9.12-16.05-5.88-24.31-41-22.58-84.68-33-130.94-22.66-39.67,8.83-69.46,31.55-79.26,72.86-9.26,39,6.29,73.63,46,96.76,25.67,14.94,55.1,23.29,82.3,35.78,17.91,8.22,36.57,16.37,51.88,28.39,35.17,27.61,30.21,76.61-9,98.15-44.06,24.2-87.57,16.19-129.92-5.23-13-6.58-24.89-15.39-38.35-23.86-4.67,6.74-8.38,13.15-13.13,18.67-6.21,7.22-4.07,11.43,2.86,16.73,20.8,15.92,43,29,68.52,35.48,41.7,10.6,83.08,12.95,123.26-6.53,63-30.55,77.12-122.2,18.59-162-18.57-12.65-38.86-23.09-59.26-32.64-25.84-12.09-53.33-20.78-78.71-33.69-20.78-10.56-31.86-29.68-29.32-53.91,2.41-22.86,16.63-37.38,36.82-46.77,28.77-13.39,57.91-10.16,86.54-.49C476.77,366.81,492.3,375.07,509.24,382.56Zm28.41-158.93c-1.83-32.43-9.65-62.1-28.39-87.77C481.62,98,445.49,76.45,397,85.92c-50,9.76-88.66,52.76-98.91,107.89-1.8,9.65-2.29,19.53-3.44,29.82Z"/><path class="cls-1" d="M509.24,382.56c-16.94-7.49-32.47-15.75-48.9-21.3-28.63-9.67-57.77-12.9-86.54.49-20.19,9.39-34.41,23.91-36.82,46.77-2.54,24.23,8.54,43.35,29.32,53.91,25.38,12.91,52.87,21.6,78.71,33.69,20.4,9.55,40.69,20,59.26,32.64,58.53,39.84,44.44,131.49-18.59,162-40.18,19.48-81.56,17.13-123.26,6.53-25.52-6.49-47.72-19.56-68.52-35.48-6.93-5.3-9.07-9.51-2.86-16.73,4.75-5.52,8.46-11.93,13.13-18.67,13.46,8.47,25.34,17.28,38.35,23.86,42.35,21.42,85.86,29.43,129.92,5.23,39.24-21.54,44.2-70.54,9-98.15-15.31-12-34-20.17-51.88-28.39-27.2-12.49-56.63-20.84-82.3-35.78-39.73-23.13-55.28-57.72-46-96.76,9.8-41.31,39.59-64,79.26-72.86,46.26-10.3,89.94.08,130.94,22.66,15,8.26,15,9.42,5.88,24.31C514.74,374.82,511.77,378.84,509.24,382.56Z"/><path class="cls-1" d="M537.65,223.63h-243c1.15-10.29,1.64-20.17,3.44-29.82C308.36,138.68,347,95.68,397,85.92c48.47-9.47,84.6,12.09,112.24,49.94C528,161.53,535.82,191.2,537.65,223.63Z"/></g></g></svg>